 http://img690.imageshack.us/img690/6183/vlcsnap2011101201h49m40.png
 
http://img803.imageshack.us/img803/6872/64439361.png
 
http://img40.imageshack.us/img40/9013/vlcsnap2011101200h42m34.png
 
http://img854.imageshack.us/img854/5451/vlcsnap2011101200h41m33.png
 
http://img13.imageshack.us/img13/8397/vlcsnap2011101200h43m26.png

STORYSAYS

Tom, a married man with kids, is struggling at work when a client tries to seduce him with promises of a 'more exciting life'. On his way home one night he gets attacked by a gang of hoodies and falls into a parallel world where he lives 5 other lives including a Rock-Star, a Homeless person and the 'hoody' that attacked him. These lives help him to re-evaluate his priorities and values but in order to get home he must face some of his deepest desires and fears. Will he make it home or is the grass greener on the other side? 

CAST

Kate Ashfield, Danny Dyer, Anna Skellern, Mary Stockley, Tom Goodman-Hill, Theo Bartholmew-mews, Martin Compston, Craig Conway, Michael Elwyn
INFO
 
http://www.imdb.com/title/tt1558246/


General
Complete name : 7 Lives 2011.Title2 dvdrip.avi
Format : AVI
Format/Info : Audio Video Interleave
Format profile : OpenDML
File size : 1.01 GiB
Duration : 1h 35mn
Overall bit rate : 1 521 Kbps



Video
ID : 0
Format : MPEG-4 Visual
Format profile : Advanced Simple@L5
Format settings, BVOP : 2
Format settings, QPel : No
Format settings, GMC : No warppoints
Format settings, Matrix : Default (H.263)
Muxing mode : Packed bitstream
Codec ID : DX50
Codec ID/Hint : DivX 5
Duration : 1h 35mn
Bit rate : 91.8 Kbps
Width : 720 pixels
Height : 406 pixels
Display aspect ratio : 16:9
Frame rate : 25.000 fps
Color space : YUV
Chroma subsampling : 4:2:0
Bit depth : 8 bits
Scan type : Progressive
Compression mode : Lossy
Bits/(Pixel*Frame) : 0.013
Stream size : 62.7 MiB (6%)
Writing library : XviD 1.2.1 (UTC 2008-12-04)

Audio
ID : 1
Format : MPEG Audio
Format version : Version 1
Format profile : Layer 3
Mode : Joint stereo
Mode extension : MS Stereo
Codec ID : 55
Codec ID/Hint : MP3
Duration : 1h 35mn
Bit rate mode : Constant
Bit rate : 64.0 Kbps
Channel(s) : 2 channels
Sampling rate : 48.0 KHz
Compression mode : Lossy
Stream size : 223 KiB (0%)
Alignment : Aligned on interleaves
Interleave, duration : 301 ms (7.52 video frames)

Run time : 1 hr 30 mins

Genres Thriller

Language : English

Uk Release 2011

